<svg xmlns="http://www.w3.org/2000/svg" xmlns:xlink="http://www.w3.org/1999/xlink" width="500" zoomAndPan="magnify" viewBox="0 0 375 374.999991" height="500" preserveAspectRatio="xMidYMid meet" version="1.0"><rect x="-37.5" width="450" fill="#ffffff" y="-37.499999" height="449.999989" fill-opacity="1"/><rect x="-37.5" width="450" fill="#ffffff" y="-37.499999" height="449.999989" fill-opacity="1"/><path stroke-linecap="butt" transform="matrix(5.399681, 0, 0, 5.399681, 54.549987, 7.261782)" fill="none" stroke-linejoin="miter" d="M 44.460959 11.166012 L 44.460959 28.515849 L 23.296516 11.166012 Z M 17.417986 11.384485 L 17.814421 11.384485 L 40.878572 30.252062 C 41.589696 30.890121 42.241499 31.518775 42.833982 32.138748 C 43.435869 32.749316 44.164356 33.633338 45.021611 34.790814 C 46.288324 36.550177 46.922042 38.641591 46.922042 41.066503 C 46.922042 43.189747 46.39756 45.240649 45.349321 47.218486 C 44.310487 49.196323 42.67917 50.823299 40.455369 52.099416 C 38.24025 53.366852 35.487628 53.999847 32.197504 53.999847 L 11.484476 38.318221 C 8.567637 36.112507 6.425584 33.865557 5.058316 31.578096 C 3.700452 29.28123 3.021159 26.825211 3.021159 24.209316 C 3.021159 21.629592 3.654877 19.368897 4.921589 17.427955 C 6.197706 15.48629 7.925238 13.99604 10.103463 12.957205 C 12.291092 11.908966 14.729025 11.384485 17.417986 11.384485 Z M 3.254101 36.076336 L 26.099777 53.999847 L 3.254101 53.999847 Z M 3.254101 36.076336 " stroke="#000000" stroke-width="2.1" stroke-opacity="1" stroke-miterlimit="4"/></svg>