<svg xmlns="http://www.w3.org/2000/svg" xmlns:xlink="http://www.w3.org/1999/xlink" width="500" zoomAndPan="magnify" viewBox="0 0 375 374.999991" height="500" preserveAspectRatio="xMidYMid meet" version="1.0"><defs><clipPath id="59938f47cb"><path d="M 1.601562 1.601562 L 373.601562 1.601562 L 373.601562 373.601562 L 1.601562 373.601562 Z M 1.601562 1.601562 " clip-rule="nonzero"/></clipPath></defs><path stroke-linecap="round" transform="matrix(1.064073, 0, 0, 1.064073, 1.599844, 1.59984)" fill="none" stroke-linejoin="round" d="M 232.888387 98.638651 C 232.888387 100.543918 232.796611 102.438172 232.609388 104.332426 C 232.422165 106.22668 232.146838 108.106249 231.772392 109.971135 C 231.401618 111.836021 230.942738 113.67888 230.388412 115.499713 C 229.837757 117.320547 229.195326 119.108341 228.468461 120.866766 C 227.741596 122.625192 226.930297 124.339565 226.030894 126.017228 C 225.135161 127.694891 224.158666 129.32483 223.101408 130.907046 C 222.04415 132.489262 220.913471 134.016413 219.705701 135.484826 C 218.49793 136.956911 217.224081 138.362918 215.880483 139.710187 C 214.533213 141.053786 213.127207 142.331306 211.655122 143.535406 C 210.186708 144.743176 208.659557 145.873855 207.077341 146.931113 C 205.495125 147.988371 203.865186 148.964866 202.187523 149.860598 C 200.50986 150.760002 198.791816 151.571301 197.037061 152.298165 C 195.278636 153.02503 193.490842 153.667461 191.670009 154.218117 C 189.849175 154.772443 188.006316 155.231322 186.14143 155.605768 C 184.276545 155.976542 182.396975 156.255541 180.502721 156.439093 C 178.608467 156.626315 176.710542 156.721762 174.808946 156.721762 C 172.90735 156.721762 171.009425 156.626315 169.118842 156.439093 C 167.224588 156.255541 165.345019 155.976542 163.480133 155.605768 C 161.615247 155.231322 159.772388 154.772443 157.951555 154.218117 C 156.130721 153.667461 154.342928 153.028701 152.584502 152.298165 C 150.826076 151.571301 149.108032 150.760002 147.430369 149.860598 C 145.752706 148.964866 144.122767 147.988371 142.544222 146.931113 C 140.962006 145.873855 139.434856 144.743176 137.962771 143.535406 C 136.494357 142.331306 135.084679 141.053786 133.741081 139.710187 C 132.397482 138.362918 131.119962 136.956911 129.912191 135.484826 C 128.708092 134.016413 127.573742 132.489262 126.516484 130.907046 C 125.462897 129.32483 124.486402 127.694891 123.586999 126.017228 C 122.691266 124.339565 121.879967 122.625192 121.149432 120.866766 C 120.422567 119.108341 119.783807 117.320547 119.22948 115.499713 C 118.678825 113.67888 118.216275 111.836021 117.8455 109.971135 C 117.474726 108.106249 117.195727 106.22668 117.008504 104.332426 C 116.824953 102.438172 116.729506 100.543918 116.729506 98.638651 C 116.729506 96.737055 116.824953 94.83913 117.008504 92.948547 C 117.195727 91.054293 117.474726 89.174723 117.8455 87.309838 C 118.216275 85.444952 118.678825 83.602093 119.22948 81.781259 C 119.783807 79.960426 120.422567 78.172632 121.149432 76.414207 C 121.879967 74.655781 122.691266 72.937737 123.586999 71.260074 C 124.486402 69.582411 125.462897 67.952472 126.516484 66.373927 C 127.573742 64.791711 128.708092 63.26456 129.912191 61.796146 C 131.119962 60.324061 132.397482 58.918055 133.741081 57.570785 C 135.084679 56.227187 136.494357 54.949667 137.962771 53.741896 C 139.434856 52.537797 140.962006 51.403447 142.544222 50.34986 C 144.122767 49.292602 145.752706 48.316107 147.430369 47.416703 C 149.108032 46.520971 150.826076 45.709672 152.584502 44.982807 C 154.342928 44.252271 156.130721 43.613511 157.951555 43.059185 C 159.772388 42.50853 161.615247 42.04598 163.480133 41.675205 C 165.345019 41.304431 167.224588 41.025432 169.118842 40.838209 C 171.009425 40.654657 172.90735 40.55921 174.808946 40.55921 C 176.710542 40.55921 178.608467 40.654657 180.502721 40.838209 C 182.396975 41.025432 184.276545 41.304431 186.14143 41.675205 C 188.006316 42.04598 189.849175 42.50853 191.670009 43.059185 C 193.490842 43.613511 195.278636 44.252271 197.037061 44.982807 C 198.791816 45.709672 200.50986 46.520971 202.187523 47.416703 C 203.865186 48.316107 205.495125 49.292602 207.077341 50.34986 C 208.659557 51.403447 210.186708 52.537797 211.655122 53.741896 C 213.127207 54.949667 214.533213 56.227187 215.880483 57.570785 C 217.224081 58.918055 218.49793 60.324061 219.705701 61.796146 C 220.913471 63.26456 222.04415 64.791711 223.101408 66.373927 C 224.158666 67.952472 225.135161 69.582411 226.030894 71.260074 C 226.930297 72.937737 227.741596 74.655781 228.468461 76.414207 C 229.195326 78.172632 229.837757 79.960426 230.388412 81.781259 C 230.942738 83.602093 231.401618 85.444952 231.772392 87.309838 C 232.146838 89.174723 232.422165 91.054293 232.609388 92.948547 C 232.796611 94.83913 232.888387 96.737055 232.888387 98.638651 Z M 232.888387 98.638651 " stroke="#000000" stroke-width="10.742" stroke-opacity="1" stroke-miterlimit="10"/><path stroke-linecap="round" transform="matrix(1.064073, 0, 0, 1.064073, 1.599844, 1.59984)" fill="none" stroke-linejoin="round" d="M 53.011356 292.498653 C 55.588422 227.539693 109.159832 175.620249 174.830972 175.620249 C 208.49069 175.620249 238.93091 189.228775 260.979144 211.291694 C 281.959108 232.271657 295.358385 260.920412 296.569826 292.568402 " stroke="#000000" stroke-width="10.742" stroke-opacity="1" stroke-miterlimit="10"/><g clip-path="url(#59938f47cb)"><path stroke-linecap="round" transform="matrix(1.064073, 0, 0, 1.064073, 1.599844, 1.59984)" fill="none" stroke-linejoin="round" d="M 344.249225 174.80895 C 344.249225 177.584253 344.183146 180.355884 344.047318 183.123844 C 343.91149 185.895475 343.705912 188.659764 343.434255 191.416712 C 343.162599 194.17733 342.821193 196.930606 342.417379 199.672869 C 342.009894 202.415132 341.53633 205.146381 340.993017 207.866618 C 340.453375 210.586855 339.847654 213.292407 339.172184 215.979605 C 338.496714 218.670473 337.758836 221.342987 336.954879 223.997145 C 336.147251 226.647632 335.280887 229.283435 334.344773 231.89354 C 333.412331 234.503646 332.413809 237.091726 331.35288 239.650437 C 330.291951 242.212819 329.168614 244.749504 327.98287 247.25315 C 326.797126 249.760466 325.548974 252.238415 324.242086 254.683324 C 322.935197 257.128233 321.569572 259.540103 320.145211 261.918933 C 318.717179 264.297764 317.23408 266.639884 315.695917 268.945294 C 314.154082 271.250704 312.557182 273.519403 310.905217 275.74405 C 309.253251 277.972368 307.549891 280.156634 305.787794 282.300518 C 304.029369 284.444403 302.219548 286.544234 300.358334 288.600014 C 298.493448 290.652122 296.58451 292.660178 294.620507 294.620511 C 292.660174 296.584514 290.652118 298.493452 288.60001 300.358338 C 286.54423 302.219553 284.444398 304.029373 282.300514 305.787798 C 280.15663 307.549895 277.972364 309.253255 275.744046 310.905221 C 273.519399 312.557186 271.250699 314.154087 268.94529 315.695921 C 266.63988 317.234085 264.29776 318.717183 261.918929 320.145215 C 259.540099 321.569577 257.128229 322.935202 254.68332 324.24209 C 252.238411 325.548978 249.760462 326.79713 247.253145 327.982874 C 244.7495 329.168619 242.212815 330.291955 239.650433 331.352884 C 237.091721 332.413813 234.503642 333.412335 231.893536 334.344778 C 229.28343 335.280891 226.647628 336.147256 223.99714 336.954883 C 221.342982 337.75884 218.670469 338.496718 215.979601 339.172188 C 213.292403 339.847659 210.586851 340.453379 207.866614 340.993021 C 205.146377 341.536335 202.415127 342.009898 199.672864 342.417383 C 196.930601 342.821197 194.177325 343.162603 191.416707 343.43426 C 188.65976 343.705916 185.895471 343.911494 183.12384 344.047322 C 180.35588 344.183151 177.584248 344.249229 174.808946 344.249229 C 172.037315 344.249229 169.265684 344.183151 166.497724 344.047322 C 163.726092 343.911494 160.961803 343.705916 158.201185 343.43426 C 155.440567 343.162603 152.690962 342.821197 149.948699 342.417383 C 147.206436 342.009898 144.475186 341.536335 141.75495 340.993021 C 139.034713 340.453379 136.32916 339.847659 133.638292 339.172188 C 130.951094 338.496718 128.278581 337.75884 125.624423 336.954883 C 122.970265 336.147256 120.338133 335.280891 117.728027 334.344778 C 115.117922 333.412335 112.529842 332.413813 109.96746 331.352884 C 107.405078 330.291955 104.872064 329.168619 102.364747 327.982874 C 99.85743 326.79713 97.383153 325.548978 94.938244 324.24209 C 92.489663 322.935202 90.077794 321.569577 87.698963 320.145215 C 85.320133 318.717183 82.978012 317.234085 80.672603 315.695921 C 78.367193 314.154087 76.102164 312.557186 73.873846 310.905221 C 71.649199 309.253255 69.461263 307.549895 67.317378 305.787798 C 65.173494 304.029373 63.077333 302.219553 61.021554 300.358338 C 58.965774 298.493452 56.957718 296.584514 54.997386 294.620511 C 53.037053 292.660178 51.124444 290.652122 49.26323 288.600014 C 47.402015 286.544234 45.588524 284.444403 43.830098 282.300518 C 42.071673 280.156634 40.364641 277.972368 38.712676 275.74405 C 37.064381 273.519403 35.467481 271.250704 33.925646 268.945294 C 32.383812 266.639884 30.900714 264.297764 29.476352 261.918933 C 28.051991 259.540103 26.682695 257.128233 25.375807 254.683324 C 24.068918 252.238415 22.824437 249.760466 21.638693 247.25315 C 20.452949 244.749504 19.329612 242.212819 18.268683 239.650437 C 17.207754 237.091726 16.209233 234.503646 15.273119 231.89354 C 14.340676 229.283435 13.470641 226.647632 12.666684 223.997145 C 11.862728 221.342987 11.121179 218.670473 10.449379 215.979605 C 9.773909 213.292407 9.168188 210.586855 8.624875 207.866618 C 8.085233 205.146381 7.61167 202.415132 7.204185 199.672869 C 6.7967 196.930606 6.458965 194.17733 6.187308 191.416712 C 5.915652 188.659764 5.710074 185.895475 5.574245 183.123844 C 5.438417 180.355884 5.368667 177.584253 5.368667 174.80895 C 5.368667 172.037319 5.438417 169.265688 5.574245 166.497728 C 5.710074 163.726097 5.915652 160.961807 6.187308 158.201189 C 6.458965 155.440571 6.7967 152.690966 7.204185 149.948703 C 7.61167 147.20644 8.085233 144.47519 8.624875 141.754954 C 9.168188 139.034717 9.773909 136.329164 10.449379 133.638296 C 11.121179 130.951099 11.862728 128.278585 12.666684 125.624427 C 13.470641 122.970269 14.340676 120.338137 15.273119 117.728031 C 16.209233 115.117926 17.207754 112.529846 18.268683 109.967464 C 19.329612 107.405082 20.452949 104.872068 21.638693 102.364751 C 22.824437 99.857434 24.068918 97.383157 25.375807 94.938248 C 26.682695 92.489668 28.051991 90.077798 29.476352 87.698967 C 30.900714 85.320137 32.383812 82.978017 33.925646 80.672607 C 35.467481 78.367197 37.064381 76.102169 38.712676 73.873851 C 40.364641 71.649204 42.071673 69.461267 43.830098 67.317383 C 45.588524 65.173498 47.402015 63.077337 49.26323 61.021558 C 51.124444 58.965779 53.037053 56.957723 54.997386 54.99739 C 56.957718 53.037057 58.965774 51.124448 61.021554 49.263234 C 63.077333 47.402019 65.173494 45.588528 67.317378 43.830102 C 69.461263 42.071677 71.649199 40.364646 73.873846 38.71268 C 76.102164 37.064385 78.367193 35.467485 80.672603 33.925651 C 82.978012 32.383816 85.320133 30.900718 87.698963 29.476357 C 90.077794 28.051995 92.489663 26.682699 94.938244 25.375811 C 97.383153 24.068922 99.85743 22.824442 102.364747 21.638697 C 104.872064 20.452953 107.405078 19.329617 109.96746 18.268688 C 112.529842 17.207759 115.117922 16.209237 117.728027 15.273123 C 120.338133 14.34068 122.970265 13.470645 125.624423 12.666689 C 128.278581 11.862732 130.951094 11.121183 133.638292 10.449384 C 136.32916 9.773913 139.034713 9.168193 141.75495 8.624879 C 144.475186 8.085237 147.206436 7.611674 149.948699 7.204189 C 152.690962 6.796704 155.440567 6.458969 158.201185 6.187312 C 160.961803 5.915656 163.726092 5.710078 166.497724 5.57425 C 169.265684 5.438421 172.037315 5.368672 174.808946 5.368672 C 177.584248 5.368672 180.35588 5.438421 183.12384 5.57425 C 185.895471 5.710078 188.65976 5.915656 191.416707 6.187312 C 194.177325 6.458969 196.930601 6.796704 199.672864 7.204189 C 202.415127 7.611674 205.146377 8.085237 207.866614 8.624879 C 210.586851 9.168193 213.292403 9.773913 215.979601 10.449384 C 218.670469 11.121183 221.342982 11.862732 223.99714 12.666689 C 226.647628 13.470645 229.28343 14.34068 231.893536 15.273123 C 234.503642 16.209237 237.091721 17.207759 239.650433 18.268688 C 242.212815 19.329617 244.7495 20.452953 247.253145 21.638697 C 249.760462 22.824442 252.238411 24.068922 254.68332 25.375811 C 257.128229 26.682699 259.540099 28.051995 261.918929 29.476357 C 264.29776 30.900718 266.63988 32.383816 268.94529 33.925651 C 271.250699 35.467485 273.519399 37.064385 275.744046 38.71268 C 277.972364 40.364646 280.15663 42.071677 282.300514 43.830102 C 284.444398 45.588528 286.54423 47.402019 288.60001 49.263234 C 290.652118 51.124448 292.660174 53.037057 294.620507 54.99739 C 296.58451 56.957723 298.493448 58.965779 300.358334 61.021558 C 302.219548 63.077337 304.029369 65.173498 305.787794 67.317383 C 307.549891 69.461267 309.253251 71.649204 310.905217 73.873851 C 312.557182 76.102169 314.154082 78.367197 315.695917 80.672607 C 317.23408 82.978017 318.717179 85.320137 320.145211 87.698967 C 321.569572 90.077798 322.935197 92.489668 324.242086 94.938248 C 325.548974 97.383157 326.797126 99.857434 327.98287 102.364751 C 329.168614 104.872068 330.291951 107.405082 331.35288 109.967464 C 332.413809 112.529846 333.412331 115.117926 334.344773 117.728031 C 335.280887 120.338137 336.147251 122.970269 336.954879 125.624427 C 337.758836 128.278585 338.496714 130.951099 339.172184 133.638296 C 339.847654 136.329164 340.453375 139.034717 340.993017 141.754954 C 341.53633 144.47519 342.009894 147.20644 342.417379 149.948703 C 342.821193 152.690966 343.162599 155.440571 343.434255 158.201189 C 343.705912 160.961807 343.91149 163.726097 344.047318 166.497728 C 344.183146 169.265688 344.249225 172.037319 344.249225 174.80895 Z M 344.249225 174.80895 " stroke="#000000" stroke-width="10.742" stroke-opacity="1" stroke-miterlimit="10"/></g></svg>