<svg xmlns="http://www.w3.org/2000/svg" xmlns:xlink="http://www.w3.org/1999/xlink" width="400" zoomAndPan="magnify" viewBox="0 0 300 74.999997" height="100" preserveAspectRatio="xMidYMid meet" version="1.0"><defs><g/></defs><g fill="#000000" fill-opacity="1"><g transform="translate(67.504034, 51.744236)"><g><path d="M 24.046875 -21.484375 L 19.8125 -20.375 C 19.46875 -21.21875 19.054688 -21.957031 18.578125 -22.59375 C 18.097656 -23.238281 17.472656 -23.789062 16.703125 -24.25 C 16.160156 -24.59375 15.550781 -24.867188 14.875 -25.078125 C 14.195312 -25.296875 13.5 -25.40625 12.78125 -25.40625 C 12.03125 -25.40625 11.320312 -25.332031 10.65625 -25.1875 C 10 -25.039062 9.414062 -24.820312 8.90625 -24.53125 C 8.320312 -24.175781 7.851562 -23.71875 7.5 -23.15625 C 7.15625 -22.601562 6.984375 -22.019531 6.984375 -21.40625 C 6.984375 -20.632812 7.25 -19.957031 7.78125 -19.375 C 8.15625 -19.03125 8.675781 -18.707031 9.34375 -18.40625 C 10.007812 -18.113281 10.71875 -17.847656 11.46875 -17.609375 L 16.53125 -16.140625 C 17.707031 -15.785156 18.707031 -15.394531 19.53125 -14.96875 C 20.351562 -14.550781 21.097656 -14.035156 21.765625 -13.421875 C 22.566406 -12.671875 23.1875 -11.796875 23.625 -10.796875 C 24.0625 -9.804688 24.28125 -8.765625 24.28125 -7.671875 C 24.28125 -6.441406 23.96875 -5.25 23.34375 -4.09375 C 22.71875 -2.9375 21.859375 -2 20.765625 -1.28125 C 19.734375 -0.53125 18.5625 -0.03125 17.25 0.21875 C 15.945312 0.46875 14.59375 0.59375 13.1875 0.59375 C 11.289062 0.59375 9.578125 0.304688 8.046875 -0.265625 C 6.515625 -0.835938 5.164062 -1.8125 4 -3.1875 C 3.332031 -3.96875 2.796875 -4.820312 2.390625 -5.75 C 1.992188 -6.6875 1.691406 -7.59375 1.484375 -8.46875 L 5.71875 -9.625 C 5.84375 -8.9375 6.03125 -8.273438 6.28125 -7.640625 C 6.539062 -7.015625 6.910156 -6.425781 7.390625 -5.875 C 8.023438 -5.050781 8.890625 -4.425781 9.984375 -4 C 11.078125 -3.570312 12.179688 -3.359375 13.296875 -3.359375 C 14.179688 -3.359375 15.09375 -3.46875 16.03125 -3.6875 C 16.976562 -3.914062 17.742188 -4.257812 18.328125 -4.71875 C 18.890625 -5.113281 19.28125 -5.585938 19.5 -6.140625 C 19.726562 -6.703125 19.84375 -7.265625 19.84375 -7.828125 C 19.84375 -8.835938 19.472656 -9.691406 18.734375 -10.390625 C 18.335938 -10.753906 17.878906 -11.070312 17.359375 -11.34375 C 16.835938 -11.613281 16.242188 -11.835938 15.578125 -12.015625 L 10.265625 -13.578125 C 9.253906 -13.867188 8.28125 -14.21875 7.34375 -14.625 C 6.414062 -15.039062 5.59375 -15.570312 4.875 -16.21875 C 4.070312 -16.90625 3.488281 -17.726562 3.125 -18.6875 C 2.769531 -19.644531 2.59375 -20.59375 2.59375 -21.53125 C 2.59375 -22.96875 3.007812 -24.289062 3.84375 -25.5 C 4.6875 -26.707031 5.722656 -27.609375 6.953125 -28.203125 C 7.929688 -28.679688 8.914062 -28.992188 9.90625 -29.140625 C 10.894531 -29.285156 11.867188 -29.359375 12.828125 -29.359375 C 13.835938 -29.328125 14.859375 -29.210938 15.890625 -29.015625 C 16.929688 -28.816406 17.90625 -28.453125 18.8125 -27.921875 C 21.175781 -26.554688 22.921875 -24.410156 24.046875 -21.484375 Z M 24.046875 -21.484375 "/></g></g></g><g fill="#000000" fill-opacity="1"><g transform="translate(93.230731, 51.744236)"><g><path d="M 8.703125 -18.21875 L 8.703125 -8.703125 C 8.703125 -7.828125 8.707031 -7.066406 8.71875 -6.421875 C 8.738281 -5.785156 8.878906 -5.253906 9.140625 -4.828125 C 9.410156 -4.378906 9.765625 -4.039062 10.203125 -3.8125 C 10.640625 -3.582031 11.097656 -3.441406 11.578125 -3.390625 C 12.140625 -3.335938 12.734375 -3.320312 13.359375 -3.34375 C 13.984375 -3.375 14.578125 -3.445312 15.140625 -3.5625 L 15.140625 0 C 14.367188 0.1875 13.445312 0.285156 12.375 0.296875 C 11.3125 0.304688 10.410156 0.257812 9.671875 0.15625 C 8.679688 0 7.847656 -0.273438 7.171875 -0.671875 C 6.492188 -1.078125 5.898438 -1.707031 5.390625 -2.5625 C 4.890625 -3.382812 4.625 -4.28125 4.59375 -5.25 C 4.5625 -6.21875 4.546875 -7.289062 4.546875 -8.46875 L 4.546875 -18.21875 L 0.40625 -18.21875 L 0.40625 -21.5625 L 4.546875 -21.5625 L 4.546875 -27.5625 L 8.703125 -27.5625 L 8.703125 -21.5625 L 15.140625 -21.5625 L 15.140625 -18.21875 Z M 8.703125 -18.21875 "/></g></g></g><g fill="#000000" fill-opacity="1"><g transform="translate(110.088919, 51.744236)"><g><path d="M 12.984375 -22.125 C 14.097656 -22.207031 15.175781 -22.046875 16.21875 -21.640625 L 16.21875 -17.734375 C 15.707031 -17.921875 15.144531 -18.0625 14.53125 -18.15625 C 13.925781 -18.25 13.289062 -18.269531 12.625 -18.21875 C 10.945312 -18.132812 9.65625 -17.613281 8.75 -16.65625 C 8 -15.9375 7.515625 -15.085938 7.296875 -14.109375 C 7.085938 -13.140625 6.984375 -12.054688 6.984375 -10.859375 L 6.984375 0 L 2.796875 0 L 2.796875 -21.5625 L 6.515625 -21.5625 L 6.515625 -18.453125 C 6.992188 -19.304688 7.671875 -20.050781 8.546875 -20.6875 C 9.210938 -21.164062 9.925781 -21.519531 10.6875 -21.75 C 11.445312 -21.976562 12.210938 -22.101562 12.984375 -22.125 Z M 12.984375 -22.125 "/></g></g></g><g fill="#000000" fill-opacity="1"><g transform="translate(127.306636, 51.744236)"><g><path d="M 6.078125 -9.625 C 6.128906 -8.875 6.265625 -8.144531 6.484375 -7.4375 C 6.710938 -6.738281 7.039062 -6.097656 7.46875 -5.515625 C 8 -4.796875 8.675781 -4.253906 9.5 -3.890625 C 10.332031 -3.535156 11.210938 -3.359375 12.140625 -3.359375 C 13.609375 -3.359375 14.820312 -3.703125 15.78125 -4.390625 C 16.257812 -4.734375 16.65625 -5.101562 16.96875 -5.5 C 17.289062 -5.90625 17.5625 -6.335938 17.78125 -6.796875 L 21.84375 -5.46875 C 21.019531 -3.53125 19.753906 -2.039062 18.046875 -1 C 16.316406 0.0625 14.425781 0.59375 12.375 0.59375 C 10.78125 0.59375 9.242188 0.289062 7.765625 -0.3125 C 6.285156 -0.925781 5.066406 -1.804688 4.109375 -2.953125 C 3.234375 -4.046875 2.59375 -5.25 2.1875 -6.5625 C 1.789062 -7.882812 1.59375 -9.222656 1.59375 -10.578125 C 1.59375 -12.078125 1.796875 -13.523438 2.203125 -14.921875 C 2.617188 -16.316406 3.253906 -17.546875 4.109375 -18.609375 C 5.097656 -19.785156 6.296875 -20.671875 7.703125 -21.265625 C 9.117188 -21.867188 10.597656 -22.171875 12.140625 -22.171875 C 15.335938 -22.171875 17.894531 -21.035156 19.8125 -18.765625 C 20.820312 -17.546875 21.492188 -16.15625 21.828125 -14.59375 C 22.160156 -13.039062 22.273438 -11.382812 22.171875 -9.625 Z M 12.140625 -18.453125 C 11.285156 -18.484375 10.445312 -18.332031 9.625 -18 C 8.800781 -17.664062 8.082031 -17.113281 7.46875 -16.34375 C 7.09375 -15.832031 6.804688 -15.296875 6.609375 -14.734375 C 6.410156 -14.179688 6.257812 -13.597656 6.15625 -12.984375 L 17.890625 -12.984375 C 17.835938 -13.648438 17.722656 -14.269531 17.546875 -14.84375 C 17.378906 -15.414062 17.109375 -15.953125 16.734375 -16.453125 C 16.222656 -17.148438 15.554688 -17.664062 14.734375 -18 C 13.910156 -18.332031 13.046875 -18.484375 12.140625 -18.453125 Z M 12.140625 -18.453125 "/></g></g></g><g fill="#000000" fill-opacity="1"><g transform="translate(151.115822, 51.744236)"><g><path d="M 20.328125 0 L 16.65625 0 L 16.65625 -3.078125 C 15.644531 -1.710938 14.5 -0.757812 13.21875 -0.21875 C 11.9375 0.320312 10.429688 0.59375 8.703125 0.59375 C 6.597656 0.59375 4.882812 0.00390625 3.5625 -1.171875 C 2.25 -2.359375 1.59375 -3.960938 1.59375 -5.984375 C 1.59375 -7.367188 1.882812 -8.5625 2.46875 -9.5625 C 3.0625 -10.5625 4.035156 -11.394531 5.390625 -12.0625 C 6.296875 -12.488281 7.347656 -12.832031 8.546875 -13.09375 C 9.742188 -13.363281 11 -13.59375 12.3125 -13.78125 C 13.632812 -13.96875 14.910156 -14.15625 16.140625 -14.34375 C 16.023438 -15.59375 15.539062 -16.550781 14.6875 -17.21875 C 13.84375 -17.882812 12.710938 -18.21875 11.296875 -18.21875 C 10.179688 -18.21875 9.128906 -18.035156 8.140625 -17.671875 C 7.160156 -17.316406 6.257812 -16.6875 5.4375 -15.78125 L 2.921875 -18.53125 C 5.148438 -20.957031 8.0625 -22.171875 11.65625 -22.171875 C 12.78125 -22.171875 13.875 -21.960938 14.9375 -21.546875 C 16 -21.128906 16.90625 -20.601562 17.65625 -19.96875 C 18.664062 -19.113281 19.363281 -18.082031 19.75 -16.875 C 20.132812 -15.664062 20.328125 -14.394531 20.328125 -13.0625 Z M 15.375 -6.03125 C 15.800781 -6.71875 16.039062 -7.46875 16.09375 -8.28125 C 16.144531 -9.09375 16.171875 -9.976562 16.171875 -10.9375 C 14.972656 -10.757812 13.816406 -10.566406 12.703125 -10.359375 C 11.585938 -10.160156 10.601562 -9.96875 9.75 -9.78125 C 8.675781 -9.539062 7.738281 -9.132812 6.9375 -8.5625 C 6.144531 -7.988281 5.75 -7.238281 5.75 -6.3125 C 5.75 -5.320312 6.113281 -4.515625 6.84375 -3.890625 C 7.582031 -3.265625 8.492188 -2.953125 9.578125 -2.953125 C 10.890625 -2.953125 12.039062 -3.222656 13.03125 -3.765625 C 14.03125 -4.316406 14.8125 -5.070312 15.375 -6.03125 Z M 15.375 -6.03125 "/></g></g></g><g fill="#000000" fill-opacity="1"><g transform="translate(173.846405, 51.744236)"><g><path d="M 30.640625 -20.328125 C 31.703125 -19.347656 32.34375 -18.285156 32.5625 -17.140625 C 32.789062 -15.992188 32.90625 -14.6875 32.90625 -13.21875 L 32.90625 0 L 28.671875 0 L 28.71875 -12.9375 C 28.71875 -13.925781 28.632812 -14.742188 28.46875 -15.390625 C 28.3125 -16.046875 27.925781 -16.65625 27.3125 -17.21875 C 26.945312 -17.59375 26.492188 -17.878906 25.953125 -18.078125 C 25.421875 -18.273438 24.890625 -18.375 24.359375 -18.375 C 22.972656 -18.375 21.859375 -17.878906 21.015625 -16.890625 C 20.585938 -16.335938 20.304688 -15.785156 20.171875 -15.234375 C 20.035156 -14.691406 19.96875 -14.113281 19.96875 -13.5 L 19.96875 -13.21875 L 19.9375 0 L 15.734375 0 L 15.734375 -12.9375 C 15.734375 -13.925781 15.648438 -14.742188 15.484375 -15.390625 C 15.328125 -16.046875 14.945312 -16.65625 14.34375 -17.21875 C 13.570312 -17.988281 12.597656 -18.375 11.421875 -18.375 C 10.015625 -18.375 8.894531 -17.878906 8.0625 -16.890625 C 7.613281 -16.335938 7.320312 -15.785156 7.1875 -15.234375 C 7.050781 -14.691406 6.984375 -14.113281 6.984375 -13.5 L 6.984375 0 L 2.796875 0 L 2.796875 -21.5625 L 6.515625 -21.5625 L 6.515625 -19.21875 C 7.234375 -20.144531 8.128906 -20.859375 9.203125 -21.359375 C 10.285156 -21.867188 11.425781 -22.125 12.625 -22.125 C 13.476562 -22.125 14.367188 -21.984375 15.296875 -21.703125 C 16.234375 -21.421875 17.03125 -20.960938 17.6875 -20.328125 C 17.988281 -20.066406 18.242188 -19.785156 18.453125 -19.484375 C 18.660156 -19.191406 18.859375 -18.898438 19.046875 -18.609375 L 19.046875 -18.65625 C 19.742188 -19.75 20.675781 -20.597656 21.84375 -21.203125 C 23.019531 -21.816406 24.257812 -22.125 25.5625 -22.125 C 26.414062 -22.125 27.304688 -21.984375 28.234375 -21.703125 C 29.171875 -21.421875 29.972656 -20.960938 30.640625 -20.328125 Z M 30.640625 -20.328125 "/></g></g></g><g fill="#000000" fill-opacity="1"><g transform="translate(209.160701, 51.744236)"><g><path d="M 2.796875 0 L 6.984375 0 L 6.984375 -29.359375 L 2.796875 -29.359375 Z M 2.796875 0 "/></g></g></g><g fill="#000000" fill-opacity="1"><g transform="translate(218.948026, 51.744236)"><g><path d="M 6.078125 -9.625 C 6.128906 -8.875 6.265625 -8.144531 6.484375 -7.4375 C 6.710938 -6.738281 7.039062 -6.097656 7.46875 -5.515625 C 8 -4.796875 8.675781 -4.253906 9.5 -3.890625 C 10.332031 -3.535156 11.210938 -3.359375 12.140625 -3.359375 C 13.609375 -3.359375 14.820312 -3.703125 15.78125 -4.390625 C 16.257812 -4.734375 16.65625 -5.101562 16.96875 -5.5 C 17.289062 -5.90625 17.5625 -6.335938 17.78125 -6.796875 L 21.84375 -5.46875 C 21.019531 -3.53125 19.753906 -2.039062 18.046875 -1 C 16.316406 0.0625 14.425781 0.59375 12.375 0.59375 C 10.78125 0.59375 9.242188 0.289062 7.765625 -0.3125 C 6.285156 -0.925781 5.066406 -1.804688 4.109375 -2.953125 C 3.234375 -4.046875 2.59375 -5.25 2.1875 -6.5625 C 1.789062 -7.882812 1.59375 -9.222656 1.59375 -10.578125 C 1.59375 -12.078125 1.796875 -13.523438 2.203125 -14.921875 C 2.617188 -16.316406 3.253906 -17.546875 4.109375 -18.609375 C 5.097656 -19.785156 6.296875 -20.671875 7.703125 -21.265625 C 9.117188 -21.867188 10.597656 -22.171875 12.140625 -22.171875 C 15.335938 -22.171875 17.894531 -21.035156 19.8125 -18.765625 C 20.820312 -17.546875 21.492188 -16.15625 21.828125 -14.59375 C 22.160156 -13.039062 22.273438 -11.382812 22.171875 -9.625 Z M 12.140625 -18.453125 C 11.285156 -18.484375 10.445312 -18.332031 9.625 -18 C 8.800781 -17.664062 8.082031 -17.113281 7.46875 -16.34375 C 7.09375 -15.832031 6.804688 -15.296875 6.609375 -14.734375 C 6.410156 -14.179688 6.257812 -13.597656 6.15625 -12.984375 L 17.890625 -12.984375 C 17.835938 -13.648438 17.722656 -14.269531 17.546875 -14.84375 C 17.378906 -15.414062 17.109375 -15.953125 16.734375 -16.453125 C 16.222656 -17.148438 15.554688 -17.664062 14.734375 -18 C 13.910156 -18.332031 13.046875 -18.484375 12.140625 -18.453125 Z M 12.140625 -18.453125 "/></g></g></g><g fill="#000000" fill-opacity="1"><g transform="translate(242.757212, 51.744236)"><g><path d="M 19.734375 -15.890625 L 15.78125 -14.9375 C 15.320312 -16.164062 14.613281 -17.054688 13.65625 -17.609375 C 12.695312 -18.171875 11.617188 -18.46875 10.421875 -18.5 C 9.703125 -18.519531 9.015625 -18.4375 8.359375 -18.25 C 7.710938 -18.0625 7.175781 -17.78125 6.75 -17.40625 C 6.320312 -17.039062 6.109375 -16.601562 6.109375 -16.09375 C 6.109375 -15.425781 6.378906 -14.929688 6.921875 -14.609375 C 7.472656 -14.296875 8.1875 -14.019531 9.0625 -13.78125 C 9.675781 -13.59375 10.316406 -13.40625 10.984375 -13.21875 C 11.648438 -13.03125 12.410156 -12.816406 13.265625 -12.578125 C 15.179688 -12.078125 16.753906 -11.28125 17.984375 -10.1875 C 19.222656 -9.09375 19.84375 -7.679688 19.84375 -5.953125 C 19.84375 -4.960938 19.582031 -3.992188 19.0625 -3.046875 C 18.550781 -2.109375 17.851562 -1.375 16.96875 -0.84375 C 16.0625 -0.28125 15.128906 0.0976562 14.171875 0.296875 C 13.210938 0.492188 12.21875 0.59375 11.1875 0.59375 C 9.769531 0.59375 8.445312 0.398438 7.21875 0.015625 C 6 -0.367188 4.898438 -1.066406 3.921875 -2.078125 C 3.273438 -2.765625 2.769531 -3.460938 2.40625 -4.171875 C 2.050781 -4.878906 1.78125 -5.566406 1.59375 -6.234375 L 5.390625 -7.3125 C 5.546875 -6.800781 5.75 -6.3125 6 -5.84375 C 6.257812 -5.382812 6.5625 -4.984375 6.90625 -4.640625 C 7.46875 -4.078125 8.128906 -3.675781 8.890625 -3.4375 C 9.648438 -3.195312 10.425781 -3.078125 11.21875 -3.078125 C 11.8125 -3.078125 12.46875 -3.148438 13.1875 -3.296875 C 13.90625 -3.441406 14.472656 -3.660156 14.890625 -3.953125 C 15.640625 -4.484375 16.015625 -5.148438 16.015625 -5.953125 C 16.015625 -6.804688 15.628906 -7.414062 14.859375 -7.78125 C 14.085938 -8.15625 13.222656 -8.476562 12.265625 -8.75 C 11.253906 -9.039062 10.441406 -9.269531 9.828125 -9.4375 C 9.210938 -9.613281 8.71875 -9.757812 8.34375 -9.875 C 7.96875 -10 7.609375 -10.113281 7.265625 -10.21875 C 6.628906 -10.457031 5.976562 -10.75 5.3125 -11.09375 C 4.644531 -11.445312 4.0625 -11.875 3.5625 -12.375 C 3.101562 -12.882812 2.773438 -13.476562 2.578125 -14.15625 C 2.378906 -14.832031 2.28125 -15.425781 2.28125 -15.9375 C 2.28125 -17.1875 2.628906 -18.289062 3.328125 -19.25 C 4.035156 -20.207031 4.921875 -20.914062 5.984375 -21.375 C 6.785156 -21.71875 7.578125 -21.9375 8.359375 -22.03125 C 9.148438 -22.125 9.921875 -22.171875 10.671875 -22.171875 C 11.410156 -22.171875 12.171875 -22.082031 12.953125 -21.90625 C 13.742188 -21.726562 14.5 -21.457031 15.21875 -21.09375 C 16.257812 -20.582031 17.1875 -19.859375 18 -18.921875 C 18.8125 -17.992188 19.390625 -16.984375 19.734375 -15.890625 Z M 19.734375 -15.890625 "/></g></g></g><g fill="#000000" fill-opacity="1"><g transform="translate(264.249388, 51.744236)"><g><path d="M 19.734375 -15.890625 L 15.78125 -14.9375 C 15.320312 -16.164062 14.613281 -17.054688 13.65625 -17.609375 C 12.695312 -18.171875 11.617188 -18.46875 10.421875 -18.5 C 9.703125 -18.519531 9.015625 -18.4375 8.359375 -18.25 C 7.710938 -18.0625 7.175781 -17.78125 6.75 -17.40625 C 6.320312 -17.039062 6.109375 -16.601562 6.109375 -16.09375 C 6.109375 -15.425781 6.378906 -14.929688 6.921875 -14.609375 C 7.472656 -14.296875 8.1875 -14.019531 9.0625 -13.78125 C 9.675781 -13.59375 10.316406 -13.40625 10.984375 -13.21875 C 11.648438 -13.03125 12.410156 -12.816406 13.265625 -12.578125 C 15.179688 -12.078125 16.753906 -11.28125 17.984375 -10.1875 C 19.222656 -9.09375 19.84375 -7.679688 19.84375 -5.953125 C 19.84375 -4.960938 19.582031 -3.992188 19.0625 -3.046875 C 18.550781 -2.109375 17.851562 -1.375 16.96875 -0.84375 C 16.0625 -0.28125 15.128906 0.0976562 14.171875 0.296875 C 13.210938 0.492188 12.21875 0.59375 11.1875 0.59375 C 9.769531 0.59375 8.445312 0.398438 7.21875 0.015625 C 6 -0.367188 4.898438 -1.066406 3.921875 -2.078125 C 3.273438 -2.765625 2.769531 -3.460938 2.40625 -4.171875 C 2.050781 -4.878906 1.78125 -5.566406 1.59375 -6.234375 L 5.390625 -7.3125 C 5.546875 -6.800781 5.75 -6.3125 6 -5.84375 C 6.257812 -5.382812 6.5625 -4.984375 6.90625 -4.640625 C 7.46875 -4.078125 8.128906 -3.675781 8.890625 -3.4375 C 9.648438 -3.195312 10.425781 -3.078125 11.21875 -3.078125 C 11.8125 -3.078125 12.46875 -3.148438 13.1875 -3.296875 C 13.90625 -3.441406 14.472656 -3.660156 14.890625 -3.953125 C 15.640625 -4.484375 16.015625 -5.148438 16.015625 -5.953125 C 16.015625 -6.804688 15.628906 -7.414062 14.859375 -7.78125 C 14.085938 -8.15625 13.222656 -8.476562 12.265625 -8.75 C 11.253906 -9.039062 10.441406 -9.269531 9.828125 -9.4375 C 9.210938 -9.613281 8.71875 -9.757812 8.34375 -9.875 C 7.96875 -10 7.609375 -10.113281 7.265625 -10.21875 C 6.628906 -10.457031 5.976562 -10.75 5.3125 -11.09375 C 4.644531 -11.445312 4.0625 -11.875 3.5625 -12.375 C 3.101562 -12.882812 2.773438 -13.476562 2.578125 -14.15625 C 2.378906 -14.832031 2.28125 -15.425781 2.28125 -15.9375 C 2.28125 -17.1875 2.628906 -18.289062 3.328125 -19.25 C 4.035156 -20.207031 4.921875 -20.914062 5.984375 -21.375 C 6.785156 -21.71875 7.578125 -21.9375 8.359375 -22.03125 C 9.148438 -22.125 9.921875 -22.171875 10.671875 -22.171875 C 11.410156 -22.171875 12.171875 -22.082031 12.953125 -21.90625 C 13.742188 -21.726562 14.5 -21.457031 15.21875 -21.09375 C 16.257812 -20.582031 17.1875 -19.859375 18 -18.921875 C 18.8125 -17.992188 19.390625 -16.984375 19.734375 -15.890625 Z M 19.734375 -15.890625 "/></g></g></g><path stroke-linecap="butt" transform="matrix(0.927595, 0, 0, 0.927595, 18.377066, 7.842109)" fill="none" stroke-linejoin="miter" d="M 44.459186 11.165551 L 44.459186 28.515525 L 23.298114 11.165551 Z M 17.419336 11.384531 L 17.815185 11.384531 L 40.879701 30.250522 C 41.591387 30.890618 42.239906 31.518081 42.833679 32.137121 C 43.435875 32.747739 44.164405 33.632083 45.023481 34.790151 C 46.286829 36.550416 46.922714 38.643362 46.922714 41.064778 C 46.922714 43.191413 46.396319 45.242247 45.347741 47.217281 C 44.311796 49.196525 42.677866 50.822033 40.454374 52.098014 C 38.239305 53.365572 35.489418 54.001457 32.196292 54.001457 L 11.485813 38.319102 C 8.56748 36.112455 6.424001 33.867908 5.059585 31.577037 C 3.699381 29.281956 3.021384 26.82685 3.021384 24.207509 C 3.021384 21.63028 3.653058 19.368888 4.920617 17.427544 C 6.196598 15.4862 7.923173 13.99545 10.104553 12.955293 C 12.290145 11.910926 14.728406 11.384531 17.419336 11.384531 Z M 3.252998 36.074555 L 26.098534 54.001457 L 3.252998 54.001457 Z M 3.252998 36.074555 " stroke="#000000" stroke-width="2.1" stroke-opacity="1" stroke-miterlimit="4"/></svg>